<?xml version="1.0" standalone="no"?>
<!DOCTYPE svg PUBLIC "-//W3C//DTD SVG 20010904//EN"
 "http://www.w3.org/TR/2001/REC-SVG-20010904/DTD/svg10.dtd">
<svg version="1.0" xmlns="http://www.w3.org/2000/svg"
 width="570.000000pt" height="456.000000pt" viewBox="0 0 570.000000 456.000000"
 preserveAspectRatio="xMidYMid meet">

<g transform="translate(0.000000,456.000000) scale(0.100000,-0.100000)"
fill="#000000" stroke="none">
<path d="M2652 4277 c-1 -56 -6 -79 -16 -83 -21 -8 -26 -40 -9 -63 17 -25 36
-27 57 -5 21 21 20 39 -4 61 -15 15 -20 35 -23 93 l-3 75 -2 -78z"/>
<path d="M3468 4344 c-5 -4 -8 -15 -8 -25 0 -9 -7 -20 -16 -23 -20 -8 -15 -55
9 -70 36 -23 79 43 44 69 -8 6 -17 21 -19 34 -1 13 -6 19 -10 15z"/>
<path d="M4722 4185 c-2 -158 -3 -172 -23 -188 -24 -21 -22 -55 4 -71 37 -23
79 43 43 69 -13 10 -16 42 -19 186 l-3 174 -2 -170z"/>
<path d="M1030 4176 c0 -133 -3 -166 -15 -176 -20 -17 -19 -57 1 -68 43 -24
83 30 50 67 -13 15 -16 44 -16 179 0 101 -4 162 -10 162 -6 0 -10 -61 -10
-164z"/>
<path d="M1162 4240 c-2 -92 -5 -108 -22 -123 -11 -9 -20 -23 -20 -31 0 -21
26 -38 52 -34 28 4 38 53 14 71 -12 9 -16 36 -19 117 l-3 105 -2 -105z"/>
<path d="M1450 4315 l23 -25 223 0 c192 0 223 -2 228 -16 8 -20 55 -15 70 9
26 41 -35 74 -69 37 -17 -19 -29 -20 -220 -20 -187 0 -204 1 -228 20 -36 29
-55 25 -27 -5z"/>
<path d="M2132 4328 c-30 -30 -1 -75 43 -64 22 6 26 11 23 39 -2 26 -8 33 -28
35 -14 2 -31 -3 -38 -10z"/>
<path d="M2810 4311 c0 -16 -6 -31 -15 -35 -21 -8 -19 -53 3 -64 28 -15 62 3
62 33 0 14 -7 28 -15 31 -9 4 -15 19 -15 35 0 16 -4 29 -10 29 -5 0 -10 -13
-10 -29z"/>
<path d="M2990 4271 l0 -69 -162 -94 -163 -93 -3 -125 -3 -124 161 -161 c113
-113 159 -166 155 -177 -7 -16 19 -48 38 -48 25 0 39 18 35 46 -2 24 -8 30
-33 32 -23 3 -63 36 -182 155 l-153 152 0 121 0 122 138 77 c205 117 192 104
192 186 0 39 -4 69 -10 69 -6 0 -10 -30 -10 -69z"/>
<path d="M3264 4326 c-3 -8 -4 -25 -2 -38 2 -18 9 -23 32 -23 36 0 56 27 40
53 -14 22 -62 28 -70 8z"/>
<path d="M4008 4321 c-29 -29 -17 -81 18 -81 16 0 44 28 44 44 0 12 -33 57
-41 55 -2 0 -12 -8 -21 -18z"/>
<path d="M1280 4300 c-11 -21 2 -60 20 -60 6 0 10 -52 10 -125 0 -114 -2 -129
-22 -156 l-22 -29 21 -22 c40 -40 88 10 53 55 -18 22 -20 41 -20 151 0 74 4
126 10 126 5 0 14 9 20 20 15 28 -4 60 -35 60 -14 0 -29 -8 -35 -20z"/>
<path d="M2452 4288 c-17 -17 -15 -57 3 -64 13 -5 15 -42 15 -248 l0 -241
-192 -192 c-124 -123 -202 -193 -217 -195 -32 -4 -50 -32 -35 -55 25 -39 74
-22 74 26 0 21 39 65 190 216 l190 190 0 241 c0 228 1 242 20 259 32 29 20 75
-20 75 -9 0 -21 -5 -28 -12z"/>
<path d="M4604 4255 c-5 -13 -39 -15 -220 -15 l-214 0 -218 -126 c-119 -70
-221 -127 -227 -127 -5 0 -92 48 -191 107 -173 101 -185 106 -239 106 -38 0
-62 5 -72 16 -19 19 -52 15 -67 -8 -25 -40 44 -80 71 -42 9 13 28 19 66 20 49
1 61 -4 240 -108 104 -60 195 -107 203 -104 8 3 111 62 230 131 l216 125 202
0 c189 0 203 -1 219 -20 35 -41 92 -7 67 40 -13 24 -58 27 -66 5z"/>
<path d="M3817 4210 c-33 -26 -171 -30 -181 -4 -8 20 -55 15 -70 -8 -26 -42
35 -75 69 -38 15 17 30 20 90 20 63 0 74 -3 87 -22 11 -16 20 -20 41 -14 22 5
27 12 27 36 0 42 -30 56 -63 30z"/>
<path d="M1422 4178 c-27 -27 -6 -68 35 -68 13 0 26 7 29 15 5 12 32 15 159
15 127 0 154 -3 159 -15 8 -21 53 -19 64 3 15 28 -3 62 -33 62 -14 0 -28 -7
-31 -15 -5 -12 -32 -15 -159 -15 -127 0 -154 3 -159 15 -7 18 -47 20 -64 3z"/>
<path d="M2145 4174 c-10 -10 -14 -26 -11 -37 4 -16 -31 -58 -168 -196 -95
-97 -309 -315 -474 -486 l-301 -310 -1 -141 c0 -117 -3 -143 -15 -148 -19 -7
-19 -50 0 -66 35 -29 82 25 51 59 -13 14 -16 43 -16 157 l0 139 138 140 c75
77 287 294 470 482 252 258 340 343 360 345 30 3 42 39 22 64 -16 19 -35 18
-55 -2z"/>
<path d="M4331 4096 c-27 -32 11 -82 46 -60 25 15 149 -42 166 -76 25 -50 86
-28 73 26 -6 24 -10 26 -47 21 -51 -7 -154 37 -172 74 -15 28 -49 36 -66 15z"/>
<path d="M4032 4088 c-30 -30 -1 -75 43 -64 18 5 82 -20 255 -99 l231 -105
114 0 c70 0 115 4 115 10 0 6 -46 10 -117 10 l-118 0 -227 102 c-202 92 -227
106 -230 128 -3 28 -44 40 -66 18z"/>
<path d="M2907 4083 c-11 -11 -8 -48 5 -61 18 -18 41 -15 61 8 25 29 146 29
172 0 34 -37 95 -4 69 38 -15 23 -62 28 -70 8 -9 -22 -156 -23 -174 -1 -13 15
-51 20 -63 8z"/>
<path d="M2267 4043 c-13 -12 -7 -61 8 -67 12 -4 15 -25 15 -98 l0 -93 -224
-224 c-128 -128 -228 -221 -235 -217 -35 22 -69 -47 -36 -74 27 -23 80 18 61
48 -3 5 98 111 225 238 l229 229 0 87 c0 63 5 94 17 116 14 25 15 32 4 46 -14
16 -52 22 -64 9z"/>
<path d="M3320 4036 c-6 -8 -10 -25 -8 -38 2 -19 9 -23 43 -24 58 -1 263 -116
277 -155 18 -51 78 -46 78 6 0 33 -26 52 -51 37 -16 -10 -25 -8 -57 11 -20 13
-76 45 -124 71 -59 31 -88 53 -88 65 0 37 -46 55 -70 27z"/>
<path d="M1410 4001 c-14 -27 -3 -50 28 -58 17 -4 29 -1 37 11 18 23 298 24
322 0 32 -32 91 6 67 44 -15 23 -62 28 -70 8 -9 -23 -309 -24 -318 -1 -8 22
-53 19 -66 -4z"/>
<path d="M2756 3964 c-19 -19 -20 -36 -4 -52 17 -17 57 -15 64 3 5 13 34 15
177 15 l170 0 209 -121 c142 -82 208 -126 208 -138 0 -37 46 -55 70 -26 15 18
6 61 -16 69 -8 3 -23 2 -32 -3 -13 -7 -66 19 -221 110 l-204 119 -171 0 c-159
0 -173 1 -189 20 -20 24 -40 25 -61 4z"/>
<path d="M3856 3914 c-19 -18 -20 -28 -5 -52 9 -14 -11 -54 -106 -219 -64
-112 -121 -201 -126 -198 -9 6 -49 -30 -49 -44 0 -14 30 -41 45 -41 22 0 47
31 39 49 -11 28 -9 33 66 161 107 184 130 223 142 247 6 12 21 24 34 27 18 5
24 13 24 34 0 48 -34 67 -64 36z"/>
<path d="M2108 3889 c-10 -6 -18 -22 -18 -37 0 -22 -63 -90 -353 -380 -225
-225 -359 -352 -372 -352 -33 0 -47 -15 -43 -46 2 -21 9 -30 26 -32 29 -4 55
16 49 39 -7 25 698 729 729 729 26 0 47 23 42 46 -5 26 -40 45 -60 33z"/>
<path d="M3996 3864 c-18 -18 -20 -36 -6 -50 14 -14 -212 -404 -244 -421 -40
-21 -44 -66 -6 -78 39 -12 75 30 50 60 -18 22 203 404 241 417 33 11 42 39 22
67 -17 25 -36 27 -57 5z"/>
<path d="M1630 3855 c-11 -13 -60 -15 -371 -13 -198 2 -359 0 -359 -3 0 -16
52 -19 371 -19 324 0 340 -1 359 -20 12 -12 26 -17 37 -13 35 13 42 42 17 67
-20 20 -38 20 -54 1z"/>
<path d="M4146 3814 c-19 -18 -19 -20 -6 -43 7 -14 -15 -60 -105 -216 -71
-124 -122 -202 -137 -209 -28 -14 -32 -63 -6 -80 14 -8 22 -6 40 12 20 19 21
25 10 43 -11 17 -7 30 31 97 158 278 192 332 209 332 9 0 22 9 28 21 9 16 8
25 -6 40 -21 23 -37 24 -58 3z"/>
<path d="M2757 3813 c-12 -12 -7 -50 8 -63 15 -12 55 -5 55 11 0 5 69 9 164 9
133 0 166 -3 176 -15 29 -34 77 -5 66 40 -5 20 -13 25 -37 25 -17 0 -32 -6
-35 -15 -5 -12 -33 -15 -169 -15 -136 0 -164 3 -169 15 -5 15 -47 21 -59 8z"/>
<path d="M1148 3759 c-21 -12 -24 -54 -6 -66 7 -4 25 -7 39 -8 36 0 139 -97
139 -129 0 -45 50 -61 74 -23 15 23 -3 51 -36 55 -32 4 -148 107 -148 132 0
18 -25 50 -38 50 -4 0 -15 -5 -24 -11z"/>
<path d="M4294 3755 c-4 -9 -4 -28 -1 -43 8 -37 -202 -406 -242 -425 -35 -17
-38 -70 -3 -75 35 -5 54 16 47 50 -6 24 11 60 107 225 77 133 120 198 136 204
29 11 37 32 22 58 -13 25 -58 28 -66 6z"/>
<path d="M1370 3736 c-6 -8 -10 -25 -8 -38 4 -29 56 -39 70 -14 13 22 103 22
112 0 4 -10 16 -14 38 -12 26 2 34 8 36 26 7 48 -40 69 -73 32 -12 -14 -31
-20 -59 -20 -30 0 -44 5 -54 20 -14 23 -44 26 -62 6z"/>
<path d="M2988 3699 c-35 -20 -11 -90 26 -76 8 3 44 -25 91 -74 l77 -79 123 0
c102 0 124 -3 129 -16 4 -10 15 -14 33 -12 25 3 28 7 28 38 0 30 -4 35 -26 38
-14 2 -31 -4 -39 -12 -10 -13 -36 -16 -129 -16 l-117 0 -72 73 c-53 54 -71 78
-66 91 4 10 -1 25 -11 36 -21 23 -23 23 -47 9z"/>
<path d="M4475 3697 c-13 -11 -17 -22 -12 -44 5 -25 -12 -60 -106 -224 -82
-142 -119 -197 -140 -207 -30 -15 -37 -51 -12 -72 32 -27 81 13 58 48 -9 16 6
49 102 217 93 162 119 201 144 211 35 15 41 43 15 68 -19 19 -25 20 -49 3z"/>
<path d="M2648 3669 c-10 -6 -18 -22 -18 -37 0 -22 -29 -56 -142 -169 -90 -89
-152 -143 -167 -145 -32 -4 -50 -32 -35 -55 25 -39 74 -22 74 26 0 36 277 315
303 305 38 -14 62 39 31 70 -18 19 -23 19 -46 5z"/>
<path d="M3175 3664 c-20 -21 -16 -43 12 -61 19 -13 24 -12 42 6 30 30 151 30
188 2 41 -33 87 5 57 47 -19 27 -39 28 -61 2 -14 -17 -30 -20 -89 -20 -58 0
-74 4 -89 20 -22 24 -38 25 -60 4z"/>
<path d="M4637 3663 c-11 -11 -8 -48 5 -61 16 -16 43 -15 58 3 7 9 29 15 51
15 22 0 39 5 39 10 0 6 -17 10 -39 10 -22 0 -44 6 -51 15 -13 15 -51 20 -63 8z"/>
<path d="M905 3630 c3 -5 41 -10 83 -10 l78 0 62 -63 c44 -44 62 -70 62 -89 0
-47 50 -64 74 -25 15 23 -3 51 -36 55 -15 2 -52 31 -93 72 l-69 70 -84 0 c-53
0 -81 -4 -77 -10z"/>
<path d="M2722 3528 c-26 -26 -6 -68 33 -68 32 0 163 -138 167 -175 3 -26 7
-30 32 -30 60 0 60 67 0 73 -41 5 -164 126 -164 162 0 30 -16 50 -40 50 -9 0
-21 -5 -28 -12z"/>
<path d="M4557 3523 c-11 -11 -8 -48 5 -61 16 -16 43 -15 58 3 9 11 33 15 91
15 46 0 79 4 79 10 0 6 -33 10 -79 10 -58 0 -82 4 -91 15 -13 15 -51 20 -63 8z"/>
<path d="M905 3490 c3 -5 23 -10 43 -10 34 0 47 -9 130 -90 51 -50 90 -95 87
-100 -10 -16 4 -48 24 -55 30 -9 51 5 51 36 0 28 -24 50 -45 43 -6 -2 -53 39
-105 91 -93 94 -95 95 -143 95 -30 0 -46 -4 -42 -10z"/>
<path d="M2566 3434 c-9 -8 -16 -22 -16 -29 0 -21 31 -47 50 -42 12 3 57 -35
146 -124 l129 -129 327 0 c282 1 330 -1 351 -15 30 -19 55 -11 63 21 12 47
-43 74 -68 34 -12 -19 -24 -20 -343 -20 l-330 0 -123 123 c-96 96 -122 128
-122 149 0 17 -8 31 -19 38 -25 13 -27 13 -45 -6z"/>
<path d="M973 3331 c-10 -11 -31 -21 -48 -24 l-30 -4 33 -2 c18 0 35 -7 38
-16 8 -20 42 -29 59 -15 21 18 18 57 -4 70 -26 13 -27 13 -48 -9z"/>
<path d="M3062 3338 c-25 -25 -7 -68 29 -68 9 0 22 7 29 15 10 12 49 15 229
15 l216 0 80 -80 80 -80 175 0 175 0 85 -85 85 -85 193 0 c186 0 194 -1 211
-22 14 -16 24 -19 45 -14 24 6 27 11 24 39 -2 26 -8 33 -29 35 -14 2 -31 -4
-39 -12 -10 -14 -43 -16 -204 -16 l-191 0 -85 85 -85 85 -175 0 -175 0 -80 80
-80 80 -220 0 c-209 0 -221 1 -233 20 -14 22 -42 26 -60 8z"/>
<path d="M4454 3238 c-32 -46 -58 -74 -71 -76 -34 -5 -48 -28 -34 -58 9 -20
17 -25 39 -22 24 3 27 8 30 42 3 32 50 120 89 166 3 3 68 8 146 11 l142 5
-146 2 -146 2 -49 -72z"/>
<path d="M2450 3281 c-18 -35 14 -70 51 -56 9 3 63 -44 144 -125 l130 -130
382 0 c239 0 383 -4 383 -10 0 -14 37 -31 54 -24 22 8 31 51 16 69 -16 19 -44
19 -60 0 -11 -13 -67 -15 -394 -15 l-381 0 -128 128 c-70 70 -125 131 -122
134 4 4 2 16 -5 27 -14 27 -56 28 -70 2z"/>
<path d="M2194 3235 c-5 -13 -44 -15 -267 -15 l-262 0 -147 -147 -148 -148 0
-153 c0 -147 -1 -155 -22 -172 -20 -15 -21 -21 -10 -44 12 -28 40 -34 60 -14
17 17 15 53 -3 68 -12 10 -15 41 -15 159 l0 146 143 143 142 142 261 0 c220 0
264 -2 274 -15 30 -36 83 3 60 45 -13 24 -58 27 -66 5z"/>
<path d="M968 3154 c-11 -23 -10 -28 10 -44 21 -18 22 -25 22 -187 l0 -168
237 -238 237 -237 98 0 c56 0 98 -4 98 -10 0 -5 9 -14 20 -20 28 -15 60 4 60
35 0 35 -34 51 -65 31 -18 -12 -50 -16 -117 -16 l-93 0 -233 233 -233 233 1
155 c2 115 6 160 17 177 8 13 13 35 11 50 -2 21 -9 28 -30 30 -22 3 -30 -2
-40 -24z"/>
<path d="M2362 3161 c-8 -4 -12 -21 -10 -37 3 -25 8 -29 39 -32 30 -3 52 -20
159 -127 l125 -125 431 0 c375 0 433 -2 438 -15 3 -9 18 -15 35 -15 24 0 32 5
37 25 11 45 -37 74 -66 40 -11 -13 -73 -15 -444 -15 l-431 0 -119 119 c-75 75
-124 132 -130 153 -11 34 -38 46 -64 29z"/>
<path d="M4500 3145 c-29 -35 25 -82 59 -51 19 18 131 23 131 7 0 -13 34 -23
53 -15 22 8 31 42 17 59 -16 19 -59 19 -66 0 -5 -11 -22 -15 -64 -15 -42 0
-59 4 -64 15 -7 19 -50 19 -66 0z"/>
<path d="M1672 3074 c-14 -26 -2 -54 26 -61 20 -5 29 -1 40 15 14 22 19 22
276 22 l261 0 112 -112 c85 -86 112 -120 115 -143 3 -26 7 -30 32 -30 61 0 60
67 -1 73 -22 2 -56 29 -138 112 l-110 110 -271 0 c-232 0 -273 2 -278 15 -7
20 -53 19 -64 -1z"/>
<path d="M3750 2740 c0 -217 -2 -250 -16 -258 -10 -6 -14 -19 -12 -38 2 -25 7
-29 32 -29 44 0 56 27 28 64 -21 29 -22 38 -22 266 l0 235 113 0 112 0 105
-105 105 -105 222 0 c131 0 223 -4 223 -9 0 -14 34 -23 54 -15 12 5 16 16 14
38 -2 26 -8 32 -31 34 -18 2 -29 -2 -33 -12 -5 -14 -35 -16 -223 -16 l-218 0
-100 100 -100 100 -127 0 -126 0 0 -250z"/>
<path d="M1522 2908 c-27 -27 -6 -68 35 -68 13 0 26 7 29 15 5 13 48 15 299
15 251 0 294 -2 299 -15 7 -20 50 -19 66 0 10 12 10 21 2 40 -13 28 -43 33
-66 10 -12 -13 -60 -15 -304 -15 -245 0 -291 2 -302 15 -15 18 -42 19 -58 3z"/>
<path d="M3844 2853 c-5 -20 -2 -30 14 -44 19 -15 22 -27 22 -102 0 -72 -3
-87 -20 -102 -24 -22 -23 -53 3 -69 36 -23 76 36 42 64 -22 18 -22 186 1 211
11 12 14 27 10 44 -5 20 -13 25 -36 25 -24 0 -31 -5 -36 -27z"/>
<path d="M4006 2794 c-22 -21 -20 -51 4 -64 16 -8 20 -21 20 -59 0 -35 -5 -53
-20 -66 -37 -33 -16 -80 32 -73 28 4 37 48 14 68 -21 17 -22 113 -1 130 21 18
19 57 -4 70 -25 13 -27 13 -45 -6z"/>
<path d="M2632 2758 c-17 -17 -15 -53 3 -68 10 -8 15 -31 15 -65 0 -38 -4 -55
-15 -59 -9 -3 -15 -18 -15 -35 0 -25 5 -32 27 -37 42 -11 70 39 38 66 -10 8
-15 31 -15 67 0 35 5 60 15 69 19 20 19 39 -1 58 -19 19 -36 20 -52 4z"/>
<path d="M2786 2754 c-21 -21 -20 -41 4 -61 28 -25 28 -103 0 -128 -37 -34 -4
-95 38 -69 23 15 28 62 8 70 -22 8 -22 106 -1 124 28 23 13 80 -21 80 -7 0
-20 -7 -28 -16z"/>
<path d="M2929 2751 c-21 -16 -22 -22 -11 -45 13 -29 43 -34 62 -11 10 12 48
15 219 15 l206 0 89 -89 c68 -69 87 -93 82 -108 -8 -26 25 -57 52 -49 11 4 22
15 25 26 7 26 -20 62 -42 55 -11 -3 -45 24 -111 90 l-95 95 -207 0 c-127 0
-208 4 -208 10 0 5 -9 14 -19 20 -15 7 -25 5 -42 -9z"/>
<path d="M1536 2724 c-9 -8 -16 -22 -16 -29 0 -18 28 -45 46 -45 7 0 19 9 26
20 12 19 24 20 373 20 l360 0 145 -145 145 -145 366 0 c317 0 368 -2 373 -15
3 -9 18 -15 35 -15 24 0 32 5 37 25 11 45 -37 74 -66 40 -11 -13 -65 -15 -379
-15 l-366 0 -140 140 -140 140 -365 0 c-354 0 -366 1 -378 20 -15 24 -35 26
-56 4z"/>
<path d="M4207 2663 c-11 -11 -8 -48 5 -61 17 -17 47 -15 54 3 5 12 28 15 124
15 92 0 120 -3 130 -15 27 -33 75 -7 68 37 -4 29 -56 39 -70 14 -13 -23 -229
-24 -248 -1 -13 15 -51 20 -63 8z"/>
<path d="M2134 2646 c-3 -8 -4 -25 -2 -38 2 -17 10 -24 33 -26 23 -3 59 -32
158 -130 74 -74 125 -132 122 -140 -15 -40 54 -73 73 -34 17 31 -4 62 -43 62
-25 0 -275 248 -268 266 2 7 0 22 -7 33 -12 24 -58 29 -66 7z"/>
<path d="M928 2619 c-40 -23 -6 -89 37 -73 13 5 62 -39 191 -167 l174 -174 0
-85 0 -86 -72 -71 c-51 -50 -82 -73 -102 -75 -36 -4 -55 -31 -40 -55 23 -37
74 -22 74 21 0 13 28 49 75 96 l75 74 0 96 0 95 -175 175 c-96 96 -175 182
-175 192 0 16 -25 48 -38 48 -4 0 -15 -5 -24 -11z"/>
<path d="M2962 2608 c-7 -7 -12 -22 -12 -35 0 -40 60 -54 74 -17 4 11 35 14
157 14 135 0 153 -2 176 -20 42 -33 87 6 57 49 -19 26 -39 27 -61 1 -16 -18
-30 -20 -170 -20 -142 0 -153 1 -163 20 -12 22 -40 26 -58 8z"/>
<path d="M2032 2568 c-28 -28 -6 -68 38 -68 19 0 56 -30 153 -128 70 -70 125
-131 121 -135 -3 -3 -3 -18 0 -32 6 -22 11 -26 39 -23 25 2 33 8 35 26 4 29
-14 52 -42 52 -14 0 -64 43 -148 128 -98 98 -127 134 -130 157 -2 24 -8 31
-28 33 -14 2 -31 -3 -38 -10z"/>
<path d="M4610 2526 c-10 -13 -40 -16 -171 -16 l-159 0 -227 -120 -227 -120
-592 0 -592 0 -97 -109 c-59 -67 -102 -108 -110 -105 -20 8 -55 -14 -55 -35 0
-25 24 -43 52 -39 17 2 24 11 28 34 3 22 34 64 95 133 l90 101 575 1 c316 0
585 2 598 5 13 2 90 39 170 83 81 43 183 97 227 120 l81 41 152 0 c143 0 152
-1 162 -21 8 -14 19 -19 38 -17 24 3 27 7 27 38 0 30 -4 35 -26 38 -14 2 -31
-4 -39 -12z"/>
<path d="M1507 2493 c-11 -11 -8 -48 5 -61 17 -17 47 -15 54 3 5 12 24 15 88
15 l81 0 357 -357 c291 -291 357 -362 352 -379 -7 -26 17 -47 48 -42 45 6 31
78 -16 78 -14 0 -133 112 -381 360 l-360 360 -76 0 c-56 0 -80 4 -89 15 -13
15 -51 20 -63 8z"/>
<path d="M1938 2489 c-38 -22 -5 -91 36 -76 7 3 69 -51 140 -122 97 -97 126
-132 126 -152 0 -48 50 -65 74 -26 15 23 -3 51 -35 55 -34 5 -279 249 -279
279 0 20 -24 53 -38 53 -4 0 -15 -5 -24 -11z"/>
<path d="M4340 2380 c-6 -11 -9 -24 -6 -28 2 -4 -99 -67 -225 -140 l-228 -132
-589 0 -588 0 -64 -65 c-48 -49 -71 -65 -92 -65 -35 0 -54 -31 -38 -61 8 -14
19 -19 38 -17 22 2 28 9 30 33 2 21 22 49 65 93 l61 62 586 0 585 0 232 133
c189 110 236 133 261 129 37 -5 59 25 42 58 -14 26 -56 26 -70 0z"/>
<path d="M4636 2384 c-19 -18 -21 -45 -4 -62 18 -18 43 -15 64 9 15 17 26 20
56 15 23 -4 38 -2 38 4 0 5 -18 10 -40 10 -27 0 -47 7 -60 20 -24 24 -34 25
-54 4z"/>
<path d="M905 2350 c3 -5 20 -10 37 -10 24 0 50 -18 134 -96 78 -73 103 -101
99 -115 -4 -11 2 -26 15 -39 19 -19 24 -20 43 -7 39 26 29 70 -17 72 -17 1
-60 34 -134 103 -98 91 -114 102 -146 102 -22 0 -35 -4 -31 -10z"/>
<path d="M4478 2309 c-38 -22 -8 -86 36 -77 23 5 109 -99 115 -140 5 -30 11
-38 32 -40 36 -4 55 21 41 53 -8 18 -20 25 -39 26 -36 0 -123 100 -123 141 0
17 -8 31 -19 38 -23 12 -22 12 -43 -1z"/>
<path d="M4300 2220 c-16 -29 4 -60 38 -60 22 0 43 -19 115 -103 48 -57 100
-116 117 -132 21 -20 30 -38 30 -61 0 -52 48 -73 74 -31 15 23 -3 51 -35 56
-31 4 -264 272 -265 305 -1 13 -4 28 -8 35 -12 18 -54 13 -66 -9z"/>
<path d="M1437 2193 c-17 -16 -6 -54 18 -65 20 -9 28 -8 43 5 16 14 44 17 188
17 l169 0 228 -228 227 -227 0 -96 c0 -74 -4 -100 -15 -109 -33 -27 -7 -75 37
-68 29 4 39 56 14 70 -13 7 -16 28 -16 106 l0 97 -238 238 -237 237 -173 0
c-144 0 -174 2 -178 15 -6 15 -55 21 -67 8z"/>
<path d="M1008 2159 c-22 -12 -23 -52 -3 -69 11 -9 15 -35 15 -105 0 -70 -4
-96 -15 -105 -35 -29 -2 -90 39 -74 24 9 31 52 12 73 -23 25 -24 206 -1 215
29 11 12 77 -19 76 -6 0 -19 -5 -28 -11z"/>
<path d="M4158 2139 c-38 -22 -12 -81 34 -76 10 1 50 -38 97 -93 59 -71 79
-100 75 -116 -7 -26 17 -47 48 -42 16 2 24 11 26 29 3 28 -12 45 -44 51 -33 5
-174 176 -174 210 0 17 -8 31 -19 38 -23 12 -22 12 -43 -1z"/>
<path d="M4018 2049 c-20 -11 -24 -54 -7 -65 7 -4 22 -7 35 -8 28 -1 127 -113
119 -134 -16 -42 54 -72 75 -32 15 28 -4 60 -34 60 -32 0 -126 107 -126 144 0
15 -8 30 -19 36 -23 12 -22 12 -43 -1z"/>
<path d="M1748 1990 c-12 -18 -24 -20 -153 -20 l-140 0 -125 -125 c-98 -98
-128 -123 -145 -119 -29 7 -63 -31 -49 -54 23 -36 88 -21 82 19 -2 12 39 61
122 144 l125 125 136 0 c109 0 139 -3 149 -15 18 -21 57 -19 70 5 15 28 -4 60
-35 60 -14 0 -30 -9 -37 -20z"/>
<path d="M3538 1989 c-37 -21 -11 -88 29 -75 25 8 167 -133 158 -156 -10 -25
31 -61 54 -49 22 12 33 35 25 56 -6 16 -42 30 -52 21 -11 -12 -152 137 -152
161 0 20 -24 53 -38 53 -4 0 -15 -5 -24 -11z"/>
<path d="M2898 1949 c-38 -22 -11 -87 32 -76 15 4 75 -52 286 -269 l266 -274
434 0 c384 0 434 -2 442 -16 14 -25 66 -15 70 14 7 44 -41 70 -68 37 -11 -13
-73 -15 -445 -15 l-432 0 -259 266 c-184 189 -261 276 -266 297 -5 26 -23 47
-38 47 -3 -1 -13 -5 -22 -11z"/>
<path d="M3109 1936 c-15 -33 2 -56 41 -56 23 0 63 -37 230 -210 l202 -210
384 0 c323 0 385 -2 390 -14 14 -37 74 -23 74 17 0 43 -44 63 -70 32 -11 -13
-67 -15 -394 -15 l-382 0 -199 207 c-152 157 -201 214 -205 237 -4 25 -10 32
-32 34 -22 3 -30 -2 -39 -22z"/>
<path d="M3338 1935 c-14 -31 3 -55 41 -55 20 0 57 -31 162 -136 l137 -136
326 1 c318 2 326 1 355 -20 23 -17 32 -19 50 -10 23 13 28 50 9 69 -18 18 -46
14 -60 -8 -12 -19 -24 -20 -343 -20 l-330 0 -138 138 c-96 96 -136 143 -132
154 8 19 -20 48 -46 48 -11 0 -24 -11 -31 -25z"/>
<path d="M1503 1864 c-7 -3 -13 -18 -13 -33 0 -20 -23 -49 -98 -124 -67 -67
-103 -96 -114 -92 -17 7 -48 -19 -48 -40 0 -15 27 -45 41 -45 18 0 47 39 43
57 -7 27 171 201 210 205 36 4 55 31 40 56 -11 17 -39 25 -61 16z"/>
<path d="M2010 1820 c-18 -18 -33 -20 -173 -20 l-152 0 -148 -148 -147 -147 0
-258 c0 -244 -1 -258 -20 -277 -24 -24 -24 -30 -7 -55 10 -13 21 -16 40 -11
32 8 44 41 23 65 -14 15 -16 54 -16 277 l0 259 139 139 138 138 153 -1 c116
-2 158 -5 174 -16 11 -8 24 -15 28 -15 12 0 38 31 38 45 0 15 -27 45 -41 45
-5 0 -18 -9 -29 -20z"/>
<path d="M3950 1786 c-6 -8 -10 -25 -8 -38 4 -28 48 -37 68 -14 10 14 46 16
229 16 l216 0 81 -81 81 -81 87 -1 c47 -1 86 1 86 6 0 4 -37 7 -83 7 l-82 0
-80 80 -80 80 -222 0 c-212 0 -223 1 -233 20 -13 23 -42 26 -60 6z"/>
<path d="M1001 1741 c-12 -12 -38 -21 -63 -24 l-43 -4 48 -1 c26 -1 47 -6 47
-12 0 -5 9 -14 20 -20 42 -22 82 34 48 68 -17 17 -35 15 -57 -7z"/>
<path d="M4676 1744 c-21 -20 -20 -37 2 -57 24 -22 35 -21 56 2 10 11 28 22
40 24 18 4 18 4 -4 6 -14 0 -31 10 -38 21 -15 24 -35 26 -56 4z"/>
<path d="M2582 1738 c-18 -18 -14 -56 7 -67 15 -8 25 -6 47 12 25 20 41 22
149 24 l120 2 197 -197 c162 -160 198 -201 198 -224 0 -41 50 -58 72 -24 19
27 -11 71 -42 63 -13 -3 -76 54 -216 194 l-199 199 -131 0 c-105 0 -134 3
-144 15 -15 18 -42 19 -58 3z"/>
<path d="M2112 1653 c-11 -21 -5 -45 14 -56 10 -6 14 -31 14 -85 l0 -77 360
-360 c291 -291 360 -365 360 -386 0 -38 24 -55 55 -41 14 7 25 20 25 31 0 26
-28 53 -49 46 -12 -3 -119 98 -373 353 l-357 357 -3 72 c-1 56 2 76 15 91 20
22 22 43 5 60 -18 18 -56 15 -66 -5z"/>
<path d="M1708 1649 c-22 -12 -24 -57 -3 -65 23 -9 22 -585 0 -604 -20 -16
-16 -49 8 -64 36 -23 76 36 42 64 -22 19 -23 595 0 604 22 8 19 53 -4 66 -23
12 -22 12 -43 -1z"/>
<path d="M1858 1639 c-22 -12 -24 -57 -3 -65 13 -5 15 -56 15 -373 l0 -366
145 -145 c144 -143 144 -144 148 -194 l3 -51 2 55 2 55 -140 140 -140 140 0
366 c0 317 2 368 15 373 22 8 19 53 -4 66 -23 12 -22 12 -43 -1z"/>
<path d="M2468 1599 c-22 -12 -23 -52 -3 -69 17 -14 51 -5 59 15 4 12 35 15
168 15 l163 0 88 -88 87 -87 -158 -157 c-120 -120 -164 -157 -186 -160 -60 -6
-60 -73 0 -73 25 0 29 4 32 31 2 24 36 63 167 194 l165 165 -92 92 -93 93
-165 0 c-153 0 -167 1 -183 20 -19 23 -25 24 -49 9z"/>
<path d="M925 1593 c44 -6 197 -158 189 -189 -6 -22 18 -54 40 -54 7 0 21 9
30 19 22 25 6 61 -27 61 -15 0 -51 29 -107 85 -76 76 -88 85 -120 84 -33 -2
-34 -2 -5 -6z"/>
<path d="M2632 1508 c-6 -6 -12 -24 -12 -38 0 -40 -124 -158 -170 -162 -28 -2
-36 -8 -38 -26 -7 -47 47 -72 68 -32 6 11 9 24 6 28 -8 14 149 163 165 157 8
-3 23 1 34 9 16 12 18 19 10 43 -11 31 -43 41 -63 21z"/>
<path d="M1519 1479 c-9 -17 -7 -25 10 -43 20 -21 21 -32 21 -292 l0 -269 110
-110 c72 -71 110 -117 110 -131 0 -43 51 -58 74 -22 16 26 -3 51 -44 59 -24 5
-61 35 -136 110 l-104 104 0 268 c0 226 2 269 15 273 20 8 29 42 15 59 -18 22
-57 18 -71 -6z"/>
<path d="M930 1455 c-10 -12 -10 -21 -2 -40 7 -14 16 -25 22 -25 6 0 10 -33
10 -82 0 -69 -3 -85 -21 -104 -24 -26 -19 -60 11 -69 43 -14 69 31 40 68 -27
33 -30 181 -4 195 10 6 14 19 12 38 -2 23 -9 30 -29 32 -14 2 -31 -4 -39 -13z"/>
<path d="M2818 1449 c-10 -6 -18 -22 -18 -37 0 -39 -195 -234 -225 -226 -13 3
-27 -2 -39 -15 -18 -19 -18 -22 -2 -46 9 -14 21 -25 26 -25 17 0 50 39 45 52
-7 17 209 233 224 224 16 -11 51 12 51 34 0 18 -25 50 -38 50 -4 0 -15 -5 -24
-11z"/>
<path d="M1270 1371 c-5 -11 -7 -26 -4 -34 7 -19 -273 -284 -305 -288 -32 -5
-50 -33 -35 -56 25 -40 74 -22 74 26 0 22 27 53 136 157 75 71 140 130 143
131 3 1 18 4 32 7 15 3 30 13 33 22 9 24 -12 54 -39 54 -14 0 -29 -8 -35 -19z"/>
<path d="M4552 1364 c-27 -19 -28 -39 -2 -61 19 -17 20 -30 20 -383 0 -358 0
-365 -21 -378 -24 -15 -22 -50 4 -66 12 -8 22 -8 35 0 23 15 28 62 8 70 -14 5
-16 49 -16 374 0 314 2 369 15 380 40 33 -1 94 -43 64z"/>
<path d="M3123 1333 c-7 -2 -13 -17 -13 -31 0 -21 -31 -58 -145 -172 l-145
-145 75 -75 c45 -45 75 -83 75 -95 0 -41 45 -60 70 -30 7 9 10 25 6 41 -6 21
-12 25 -36 22 -25 -2 -41 8 -100 67 l-70 70 137 137 c108 108 144 138 164 138
38 0 55 24 41 55 -11 24 -31 30 -59 18z"/>
<path d="M4702 1284 c-27 -19 -28 -39 -2 -61 18 -16 20 -30 20 -158 0 -128 -2
-142 -20 -158 -25 -21 -25 -32 1 -58 18 -18 23 -19 42 -6 30 20 32 43 8 64
-19 16 -21 28 -21 159 0 114 3 144 15 154 40 33 -1 94 -43 64z"/>
<path d="M3448 1249 c-22 -12 -24 -57 -3 -65 13 -5 15 -55 15 -364 0 -229 4
-361 10 -365 7 -4 10 118 10 358 0 315 2 366 15 371 22 8 19 53 -4 66 -23 12
-22 12 -43 -1z"/>
<path d="M3618 1249 c-22 -12 -24 -57 -3 -65 13 -5 15 -50 15 -314 0 -264 -2
-309 -15 -314 -22 -8 -19 -53 5 -66 44 -23 83 38 45 70 -13 11 -15 58 -15 310
0 252 2 299 15 310 19 16 19 44 -1 64 -18 19 -23 19 -46 5z"/>
<path d="M2126 1234 c-30 -29 -12 -64 34 -64 19 0 56 -31 154 -129 72 -73 126
-134 122 -140 -12 -19 13 -51 40 -51 31 0 54 41 34 65 -7 8 -24 15 -39 15 -20
0 -55 29 -154 128 -89 89 -126 133 -122 144 7 17 -19 48 -40 48 -7 0 -21 -7
-29 -16z"/>
<path d="M3787 1243 c-11 -11 -8 -48 5 -61 18 -18 46 -15 57 6 9 17 27 19 185
21 l175 2 91 -53 c55 -32 90 -59 90 -69 0 -42 63 -48 76 -7 4 14 -1 27 -15 42
-18 17 -24 19 -41 9 -16 -11 -31 -6 -105 37 l-87 50 -178 0 c-146 0 -180 3
-190 15 -13 15 -51 20 -63 8z"/>
<path d="M3272 1148 c-17 -17 -15 -57 3 -64 13 -5 15 -50 15 -320 0 -203 4
-314 10 -314 6 0 10 110 10 311 0 263 2 313 15 325 19 20 19 39 -1 58 -19 19
-36 20 -52 4z"/>
<path d="M1266 1131 c-9 -10 -14 -25 -10 -34 4 -12 -25 -48 -99 -124 -57 -60
-128 -134 -157 -165 -29 -32 -61 -58 -71 -58 -10 0 -21 -4 -24 -10 -3 -6 4
-10 17 -10 18 0 66 44 187 170 115 120 169 170 185 170 42 0 59 36 30 64 -20
21 -37 20 -58 -3z"/>
<path d="M2047 1138 c-37 -20 -10 -82 32 -71 10 2 61 -42 143 -124 97 -99 127
-135 130 -158 3 -26 8 -30 35 -33 28 -3 33 1 39 23 8 32 -12 57 -42 53 -19 -2
-51 24 -149 122 -77 76 -125 132 -125 145 0 38 -33 61 -63 43z"/>
<path d="M3097 1143 c-12 -12 -7 -50 8 -63 11 -9 15 -33 15 -85 0 -56 -4 -74
-15 -79 -8 -3 -15 -17 -15 -30 0 -32 32 -51 60 -36 24 13 27 58 5 66 -22 9
-21 141 1 165 26 28 11 69 -25 69 -15 0 -31 -3 -34 -7z"/>
<path d="M3792 1108 c-19 -19 -14 -56 9 -69 17 -9 25 -7 43 10 21 20 34 21
195 21 l172 0 89 -52 c49 -29 87 -56 84 -60 -10 -16 17 -48 41 -48 32 0 50 32
34 61 -8 16 -18 20 -42 16 -24 -3 -49 7 -113 44 l-83 49 -180 0 c-170 0 -181
1 -191 20 -12 22 -40 26 -58 8z"/>
<path d="M1957 1033 c-12 -12 -7 -50 7 -63 8 -6 23 -10 34 -8 29 5 432 -386
432 -419 0 -27 19 -38 55 -29 18 5 25 13 25 30 0 30 -24 50 -52 43 -17 -5 -58
29 -225 190 -141 136 -203 202 -203 217 0 12 -5 27 -12 34 -13 13 -50 16 -61
5z"/>
<path d="M4190 945 c-10 -12 -40 -15 -148 -15 -132 0 -136 -1 -188 -30 -38
-22 -60 -29 -78 -24 -32 8 -56 -10 -56 -42 0 -33 31 -47 58 -28 12 8 22 23 22
32 0 10 21 28 53 45 50 26 59 27 190 27 113 0 139 -3 143 -15 4 -9 19 -15 35
-15 22 0 30 6 35 25 11 45 -37 74 -66 40z"/>
<path d="M1305 876 c-10 -7 -19 -22 -20 -33 0 -12 -58 -81 -128 -154 l-127
-134 0 -52 c0 -29 5 -53 10 -53 6 0 10 24 10 53 l0 52 124 129 c85 90 127 128
138 123 19 -7 58 19 58 38 0 14 -26 45 -39 45 -4 0 -15 -6 -26 -14z"/>
<path d="M4358 849 c-10 -5 -18 -18 -18 -29 0 -24 -169 -125 -184 -110 -15 15
-42 12 -56 -5 -15 -18 -6 -61 16 -69 22 -8 54 11 54 34 0 27 167 122 192 109
26 -14 58 6 58 36 0 14 -8 29 -19 35 -23 12 -22 12 -43 -1z"/>
<path d="M1428 789 c-38 -22 -7 -89 34 -74 17 7 92 -69 85 -87 -7 -22 12 -48
37 -48 30 0 49 23 41 49 -6 20 -41 38 -53 27 -11 -11 -82 67 -82 90 0 21 -24
54 -38 54 -4 0 -15 -5 -24 -11z"/>
<path d="M4690 761 c-14 -27 -3 -50 28 -58 17 -4 29 -1 37 11 7 9 17 16 24 16
17 0 13 10 -11 31 -30 24 -65 24 -78 0z"/>
<path d="M3102 758 c-17 -17 -15 -57 3 -64 12 -5 15 -28 15 -119 0 -65 4 -116
10 -120 6 -4 10 36 10 113 0 94 3 122 15 132 28 23 11 70 -25 70 -9 0 -21 -5
-28 -12z"/>
<path d="M3880 750 c-20 -20 -20 -23 -7 -43 10 -14 24 -21 41 -20 19 1 36 -10
66 -44 39 -45 40 -48 40 -120 0 -47 4 -72 10 -68 6 3 10 36 10 71 0 64 -1 67
-47 121 -26 30 -48 64 -48 75 0 11 -10 27 -22 35 -19 13 -24 12 -43 -7z"/>
<path d="M2620 720 c-11 -21 2 -60 20 -60 6 0 11 -47 12 -107 l2 -108 3 104
c3 90 6 107 23 118 36 26 19 73 -27 73 -12 0 -27 -9 -33 -20z"/>
<path d="M3704 715 c-8 -32 13 -58 42 -52 17 3 37 -11 86 -60 52 -53 62 -68
60 -92 -4 -37 26 -58 58 -41 34 18 21 72 -19 75 -27 2 -151 123 -151 146 0 34
-12 49 -41 49 -22 0 -30 -6 -35 -25z"/>
<path d="M4453 719 c-15 -5 -23 -17 -23 -31 -1 -32 -158 -123 -196 -114 -32 8
-54 -8 -54 -40 0 -33 31 -47 58 -28 12 8 22 23 22 32 1 26 162 114 195 106 31
-8 55 10 55 42 0 29 -27 45 -57 33z"/>
<path d="M1268 689 c-40 -23 -6 -89 36 -73 11 4 40 -15 85 -55 l69 -61 213 0
c182 0 215 -2 230 -16 12 -11 27 -14 44 -10 22 6 26 11 23 39 -2 26 -8 33 -29
35 -14 2 -31 -4 -39 -12 -10 -14 -45 -16 -227 -16 l-215 0 -64 56 c-44 39 -64
64 -64 80 0 13 -9 28 -19 34 -23 12 -22 12 -43 -1z"/>
<path d="M4696 634 c-22 -21 -20 -51 4 -64 15 -8 20 -23 23 -68 l3 -57 2 56
c1 36 7 61 17 69 21 18 19 57 -4 70 -25 13 -27 13 -45 -6z"/>
<path d="M2974 622 c-22 -15 -24 -42 -4 -62 14 -14 20 -34 20 -67 0 -36 3 -44
10 -33 6 8 9 29 8 45 -1 17 6 42 16 57 14 21 15 31 6 47 -11 21 -36 27 -56 13z"/>
<path d="M2792 578 c-16 -16 -15 -43 3 -58 8 -7 15 -26 15 -42 0 -17 4 -27 10
-23 6 3 10 17 10 29 0 13 7 29 15 36 28 23 11 70 -25 70 -9 0 -21 -5 -28 -12z"/>
<path d="M1142 554 c-27 -19 -28 -38 -3 -61 10 -10 21 -25 24 -33 5 -13 6 -12
6 1 1 9 8 22 16 29 40 33 -1 94 -43 64z"/>
</g>
</svg>
